<svg width="463" height="463" viewBox="0 0 463 463" fill="none" xmlns="http://www.w3.org/2000/svg">
<g clip-path="url(#clip0_1_8)">
<rect width="463" height="463" fill="white"/>
<path d="M245.319 462.442C238.397 460.962 232.303 456.956 228.599 451.451C226 447.588 225.027 443.559 225.259 437.622C225.465 432.357 226.545 428.514 229.19 423.635C233.135 416.357 235.614 411.183 239.286 402.572C240.784 399.057 241.155 398.056 243.383 391.509C248.796 375.601 251.064 367.157 254.547 349.948C257.85 333.632 260.441 315.67 261.621 300.917C263.012 283.516 263.62 266.689 263.376 252.359C262.96 228.031 260.642 214.09 254.79 200.729C251.344 192.859 245.403 185.228 240.248 182.049L238.48 180.958L235.871 181.694C230.246 183.282 215.248 186.519 206.88 187.953C188.073 191.174 170.757 193.15 144.61 195.058C139.452 195.434 123.81 196.035 114.964 196.197C109.66 196.295 105.159 196.424 104.964 196.485C104.523 196.624 104.506 198.523 104.908 202.714C105.362 207.452 104.969 206.969 108.372 206.969C111.189 206.969 111.394 207.012 113.445 208.026C119.01 210.777 122.366 217.834 121.814 225.621C121.537 229.523 121.055 231.104 117.174 240.87C115.813 244.292 110.526 256.999 109.146 260.161C107.61 263.681 105.957 267.404 105.179 269.097C101.988 276.035 99.9822 280.868 99.665 282.384C98.5537 287.695 101.633 290.91 109.291 292.434C111.14 292.802 113.791 292.889 123.617 292.906L135.674 292.927L137 293.707C138.724 294.72 139.984 296.269 140.504 298.014C141.042 299.814 141.03 300.473 140.428 302.406C139.804 304.412 137.932 306.383 136.099 306.966C135.056 307.299 132.662 307.357 122.979 307.284C113.165 307.21 111.135 307.259 111.137 307.579C111.139 308.035 112.939 317.839 113.394 319.878C114.419 324.464 117.586 336.578 119.032 341.438C119.96 344.559 120.933 347.878 121.194 348.814C121.456 349.75 122.61 353.516 123.759 357.183C124.908 360.849 126.449 366.02 127.182 368.672C131.198 383.186 134.556 389.053 141.461 393.62C147.64 397.707 154.709 398.913 167.252 398.021C180.686 397.066 193.18 394.071 206.96 388.504C213.88 385.708 227.394 378.876 232.695 375.493C233.475 374.995 234.577 374.309 235.143 373.968L236.173 373.349L235.481 375.833C234.574 379.09 232.988 384.025 231.993 386.686C226.137 402.349 224.786 405.485 219.715 415.197C215.542 423.191 213.73 428.264 212.827 434.488C212.713 435.268 212.586 435.779 212.544 435.623C211.536 431.892 209.255 425.901 206.55 419.878C204.064 414.345 199.785 407.112 198.997 407.112C198.852 407.112 197.055 407.567 195.004 408.122C187.58 410.134 175.742 412.119 167.193 412.785C152.536 413.926 141.693 411.552 132.338 405.154C128.91 402.809 124.478 398.132 121.704 393.933C118.061 388.418 116.273 383.788 111.727 368.105C110.461 363.736 108.849 358.247 108.146 355.906C100.928 331.888 98.5877 322.346 96.3578 307.852C95.9254 305.042 95.5884 303.656 95.2763 303.405C95.0271 303.203 93.8653 302.287 92.6951 301.369C90.2318 299.436 87.4469 295.731 86.1217 292.625C85.2448 290.569 84.4102 285.805 84.6091 283.991C84.6689 283.445 84.7867 282.296 84.8709 281.437C85.046 279.65 86.0783 276.487 88.0176 271.793C88.7589 269.998 89.6529 267.828 90.0042 266.97C90.3557 266.112 91.2121 264.197 91.9077 262.715C94.5505 257.082 94.6409 256.745 94.9552 251.334C95.1126 248.622 95.3912 243.017 95.574 238.879C95.9415 230.559 96.0894 232.018 93.9798 223.14C91.6302 213.253 90.3095 205.729 89.9911 200.419C89.72 195.899 90.5052 196.423 83.6904 196.208C63.9526 195.584 50.8086 194.216 41.4262 191.81C31.4602 189.254 27.2328 183.742 30.1583 177.12C31.1309 174.918 32.1581 173.564 35.6754 169.849C39.4029 165.912 42.2726 163.208 47.7305 158.492C49.9149 156.605 52.4751 154.357 53.4198 153.497C54.3646 152.638 56.4684 150.785 58.0949 149.381C64.3776 143.957 65.745 142.391 65.7445 140.623C65.7445 140.291 65.4886 139.346 65.1755 138.523C64.8628 137.7 64.4579 135.785 64.2761 134.267C63.9094 131.208 63.5322 130.547 61.5742 129.531C55.6953 126.482 52.8806 123.048 51.2229 116.899C50.6647 114.828 50.5732 113.806 50.5753 109.665C50.5778 104.558 50.6279 104.211 52.5585 95.9058C54.7114 86.6445 60.5582 70.2534 64.55 62.2887C65.2538 60.8845 66.0625 59.2698 66.3472 58.7005C67.3522 56.691 70.3224 52.1287 72.1474 49.7916C75.5593 45.4221 81.1175 41.0097 86.5575 38.352C95.408 34.0281 109.838 31.7764 123.297 32.6194L128.508 32.9459L131.098 31.1837C138.221 26.337 140.048 25.1415 141.486 24.384C142.346 23.9312 143.88 23.0361 144.894 22.3949C149.993 19.1709 165.047 12.3181 173.688 9.28712C190.157 3.51025 208.388 -0.177761 226.596 -1.4163C232.851 -1.84174 250.752 -1.84728 255.816 -1.42514C265.023 -0.658057 277.847 1.2154 285.178 2.86412C287.362 3.35542 289.979 3.93434 290.993 4.1506C292.007 4.36685 293.731 4.79142 294.823 5.09406C295.915 5.39669 298.341 6.04939 300.213 6.54446C305.831 8.02995 317.902 12.1564 321.728 13.8994C322.438 14.2228 323.097 14.4874 323.192 14.4874C323.287 14.4874 323.9 14.7286 324.555 15.0232C325.21 15.318 327.149 16.1652 328.866 16.9061C334.409 19.2987 347.645 26.2393 349.291 27.6165C349.447 27.7471 350.558 28.4528 351.76 29.1848C353.775 30.4128 358.944 33.9194 361.386 35.7152C361.953 36.1321 363.293 37.1082 364.365 37.8841C368.992 41.2358 378.29 49.4593 383.431 54.748C389.145 60.6257 396.357 69.5995 401.689 77.4662C413.056 94.2379 421.618 115.547 426.025 138.034C426.906 142.533 427.155 143.851 428.287 150.018C429.378 155.967 430.179 158.2 432.129 160.742C433.684 162.769 434.241 164.213 434.898 167.929C435.413 170.837 435.485 172.46 435.507 181.722C435.532 192.289 435.166 199.13 434.087 208.237C433.275 215.084 432.629 216.958 429.45 221.697C428.33 223.366 427.155 225.331 426.838 226.063C426.521 226.796 425.697 230.204 425.007 233.637C422.102 248.082 420.102 256.699 417.04 267.963C414.919 275.763 414.605 276.771 410.014 290.516C406.486 301.076 405.528 303.717 403.473 308.53C402.302 311.275 401.643 312.594 399.291 316.899C398.192 318.909 394.925 323.573 393.592 325.034C391.551 327.27 388.561 329.661 381.774 334.485C373.985 340.02 370.346 343.067 364.161 349.232C355.332 358.033 348.288 367.07 335.849 385.552C330.802 393.051 325.658 400.441 322.913 404.133C322.101 405.226 319.968 408.098 318.173 410.516C305.786 427.207 289.334 444.705 279.19 451.981C273.374 456.153 266.802 459.858 262.937 461.145C257.35 463.006 250.358 463.52 245.319 462.442ZM420.521 194.771C421.199 188.279 421.213 176.891 420.546 173.075L420.077 170.387L417.898 168.394C414.602 165.381 407.328 160.584 389.29 149.528C382.465 145.345 371.563 139.091 362.34 134.069C359.688 132.625 355.539 130.361 353.12 129.038C345.813 125.042 324.606 114.42 317.375 111.134C308.921 107.293 305.736 105.868 304.893 105.547C304.347 105.34 303.025 104.737 301.956 104.207C300.887 103.678 297.197 102.096 293.757 100.692C289.179 98.8238 287.444 98.2328 287.286 98.4877C287.168 98.6792 286.986 99.4213 286.882 100.137C286.584 102.189 284.847 109.182 284.093 111.366C282.152 116.988 278.164 124.886 276.195 127.01C275.765 127.474 275.716 127.671 275.989 127.84C276.186 127.961 280.759 129.833 286.152 131.998C291.545 134.164 297.042 136.39 298.368 136.946C302.373 138.624 306.67 140.467 307.872 141.022C308.496 141.31 311.432 142.591 314.397 143.868C327.834 149.656 353.457 162.261 369.858 171.153C383.07 178.316 388.322 181.357 404.184 191.03C405.854 192.048 413.13 196.96 417.797 200.218L419.636 201.503L419.826 200.548C419.931 200.023 420.244 197.423 420.521 194.771ZM157.457 136.26C154.204 133.716 152.123 131.801 149.528 128.962C144.2 123.134 141.375 118.994 136.941 110.515C133.278 103.512 131.225 100.963 128.498 100.034C126.73 99.4318 126.289 99.4704 124.326 100.399C122.482 101.273 120.445 103.267 118.041 106.552C108.752 119.246 101.999 126.782 95.3124 131.915C94.0215 132.906 93.0017 133.753 93.0461 133.798C93.0907 133.842 95.3595 133.742 98.0883 133.576C105.022 133.153 123.333 133.162 129.149 133.593C137.797 134.232 144.292 135.043 151.135 136.338C159.669 137.952 159.622 137.952 157.457 136.26ZM221.384 122.313C234.754 119.96 244.315 111.987 249.845 98.5769C253.4 89.9564 254.072 82.0961 251.828 75.3801C249.29 67.7829 244.175 62.694 234.114 57.756C221.59 51.6097 197.582 46.5581 180.84 46.5464C172.683 46.5405 166.684 47.6305 161.923 49.9831C159.411 51.2244 158.602 51.806 156.675 53.7542C154.128 56.3293 152.917 58.2044 151.511 61.7463C148.934 68.2359 148.597 74.229 150.414 81.2251C152.404 88.8808 155.528 94.7962 161.112 101.478C164.532 105.571 166.961 107.682 172.4 111.286C178.858 115.566 187.938 119 199.362 121.483C206.001 122.926 215.801 123.295 221.384 122.313ZM72.9786 110.678C83.5938 105.738 94.9858 94.687 104.26 80.3317C104.925 79.3014 106.48 76.4158 107.715 73.9194C112.253 64.7449 113.801 58.0792 112.449 53.5392C110.954 48.5222 104.872 47.2953 95.5367 50.1273C91.1408 51.4608 86.2441 54.3927 83.0206 57.6213C79.7737 60.8733 76.018 67.0674 72.989 74.1664C71.8023 76.9475 68.2155 86.3729 67.6852 88.1038C65.3505 95.7231 64.3261 100.881 64.3261 105.014C64.3261 109.346 64.9977 110.814 67.3731 111.677C68.8187 112.201 70.254 111.946 72.9786 110.678ZM144.61 342.389C138.312 341.916 132.734 340.623 130.877 339.207C128.566 337.444 127.992 333.304 129.722 330.88C131.466 328.437 133.478 327.915 137.821 328.777C143.161 329.836 145.561 330.022 151.965 329.869C157.107 329.746 158.62 329.606 161.436 328.994C170.396 327.046 178.956 322.777 184.971 317.256C186.711 315.658 187.856 315.196 190.077 315.196C191.571 315.196 192.093 315.334 193.166 316.015C195.615 317.568 196.393 320.888 195.002 323.849C193.879 326.238 188.812 330.598 183.481 333.762C171.708 340.75 159.338 343.496 144.61 342.389ZM175.142 248.365C172.621 247.562 170.473 245.846 168.246 242.856C165.07 238.589 163.384 232.421 163.711 226.26C164.076 219.399 166.473 213.773 170.7 209.861C173.124 207.616 175.049 206.751 177.961 206.598C181.19 206.429 183.513 207.154 186.162 209.16C191.503 213.204 194.261 220.334 193.899 229.161C193.726 233.358 192.957 236.403 191.091 240.274C189.604 243.36 186.774 246.285 183.914 247.693C182.163 248.555 181.677 248.663 179.242 248.73C177.384 248.782 176.088 248.666 175.142 248.365Z" fill="#3567FA"/>
</g>
<defs>
<clipPath id="clip0_1_8">
<rect width="463" height="463" fill="white"/>
</clipPath>
</defs>
</svg>
