<svg width="463" height="463" viewBox="0 0 463 463" fill="none" xmlns="http://www.w3.org/2000/svg">
<rect width="463" height="463" fill="white"/>
<path d="M243.057 421.92C237.345 420.699 232.316 417.393 229.26 412.85C227.115 409.662 226.312 406.338 226.504 401.439C226.674 397.094 227.565 393.923 229.747 389.897C233.002 383.891 235.049 379.622 238.078 372.516C239.315 369.615 239.621 368.789 241.459 363.386C245.926 350.26 247.798 343.292 250.672 329.091C253.397 315.627 255.536 300.804 256.509 288.631C257.657 274.271 258.159 260.386 257.957 248.561C257.614 228.485 255.701 216.981 250.873 205.956C248.029 199.462 243.126 193.164 238.873 190.541L237.413 189.641L235.261 190.248C230.619 191.559 218.242 194.23 211.337 195.413C195.818 198.071 181.529 199.701 159.952 201.276C155.696 201.587 142.788 202.083 135.489 202.216C131.112 202.297 127.398 202.403 127.237 202.454C126.873 202.569 126.859 204.136 127.19 207.594C127.565 211.504 127.241 211.105 130.049 211.105C132.373 211.105 132.542 211.14 134.235 211.978C138.828 214.248 141.597 220.071 141.141 226.497C140.912 229.716 140.515 231.022 137.312 239.08C136.19 241.904 131.826 252.39 130.688 254.999C129.421 257.904 128.057 260.976 127.414 262.373C124.781 268.098 123.126 272.086 122.864 273.337C121.947 277.72 124.488 280.373 130.807 281.63C132.333 281.934 134.521 282.006 142.629 282.02L152.578 282.037L153.673 282.681C155.095 283.517 156.135 284.795 156.565 286.235C157.008 287.72 156.998 288.265 156.502 289.859C155.986 291.514 154.442 293.141 152.93 293.622C152.068 293.897 150.093 293.944 142.102 293.884C134.004 293.824 132.329 293.864 132.331 294.128C132.332 294.504 133.817 302.594 134.193 304.277C135.039 308.062 137.653 318.058 138.845 322.068C139.611 324.643 140.414 327.382 140.63 328.155C140.846 328.927 141.798 332.035 142.746 335.061C143.694 338.086 144.966 342.353 145.571 344.542C148.885 356.519 151.656 361.36 157.354 365.129C162.453 368.501 168.286 369.497 178.636 368.76C189.722 367.972 200.032 365.501 211.403 360.907C217.113 358.6 228.265 352.962 232.64 350.17C233.284 349.759 234.193 349.193 234.66 348.912L235.51 348.401L234.939 350.451C234.19 353.139 232.882 357.21 232.06 359.407C227.228 372.332 226.113 374.919 221.929 382.934C218.485 389.53 216.99 393.716 216.244 398.852C216.151 399.496 216.046 399.918 216.011 399.789C215.18 396.71 213.297 391.767 211.065 386.796C209.014 382.23 205.483 376.262 204.833 376.262C204.712 376.262 203.23 376.637 201.538 377.096C195.411 378.756 185.643 380.394 178.588 380.943C166.493 381.885 157.546 379.926 149.826 374.646C146.997 372.711 143.34 368.852 141.051 365.387C138.045 360.835 136.569 357.015 132.817 344.074C131.772 340.468 130.443 335.939 129.862 334.007C123.907 314.188 121.975 306.314 120.135 294.354C119.778 292.035 119.5 290.891 119.243 290.683C119.037 290.517 118.078 289.761 117.113 289.004C115.08 287.408 112.782 284.351 111.688 281.788C110.965 280.092 110.276 276.16 110.44 274.663C110.489 274.213 110.587 273.265 110.656 272.556C110.801 271.081 111.652 268.471 113.253 264.597C113.864 263.117 114.602 261.326 114.892 260.618C115.182 259.909 115.889 258.329 116.463 257.106C118.644 252.458 118.718 252.18 118.978 247.715C119.107 245.477 119.337 240.852 119.488 237.437C119.792 230.572 119.913 231.775 118.173 224.449C116.234 216.291 115.144 210.082 114.881 205.7C114.658 201.97 115.305 202.403 109.682 202.225C93.3944 201.711 82.548 200.582 74.8057 198.596C66.5819 196.487 63.0935 191.939 65.5076 186.474C66.3101 184.657 67.1578 183.54 70.0602 180.474C73.1362 177.225 75.5042 174.994 80.008 171.102C81.8106 169.545 83.9232 167.69 84.7028 166.981C85.4825 166.271 87.2185 164.743 88.5607 163.584C93.7451 159.108 94.8735 157.816 94.8731 156.357C94.8731 156.083 94.6619 155.303 94.4036 154.624C94.1455 153.944 93.8114 152.364 93.6613 151.112C93.3588 148.588 93.0475 148.042 91.4318 147.204C86.5805 144.688 84.2579 141.854 82.89 136.78C82.4293 135.071 82.3538 134.228 82.3555 130.81C82.3576 126.596 82.3989 126.31 83.9921 119.456C85.7686 111.814 90.5934 98.2883 93.8874 91.7159C94.4682 90.5571 95.1355 89.2247 95.3705 88.7549C96.1997 87.0967 98.6507 83.3319 100.157 81.4033C102.972 77.7976 107.559 74.1566 112.048 71.9634C119.351 68.3953 131.259 66.5373 142.365 67.233L146.665 67.5023L148.803 66.0482C154.68 62.0488 156.188 61.0622 157.375 60.4372C158.084 60.0635 159.35 59.3249 160.187 58.7958C164.395 56.1353 176.817 50.4805 183.948 47.9793C197.538 43.2122 212.581 40.1689 227.607 39.1469C232.768 38.7958 247.54 38.7912 251.719 39.1396C259.316 39.7726 269.899 41.3185 275.948 42.679C277.751 43.0845 279.91 43.5622 280.747 43.7406C281.584 43.9191 283.006 44.2694 283.907 44.5192C284.809 44.7689 286.81 45.3075 288.355 45.716C292.991 46.9419 302.952 50.347 306.109 51.7853C306.695 52.0522 307.239 52.2705 307.317 52.2705C307.396 52.2705 307.902 52.4695 308.442 52.7127C308.982 52.9559 310.583 53.655 311.999 54.2664C316.573 56.2408 327.496 61.9681 328.854 63.1046C328.983 63.2123 329.9 63.7947 330.891 64.3987C332.554 65.4121 336.82 68.3057 338.835 69.7875C339.303 70.1316 340.409 70.937 341.293 71.5773C345.111 74.3431 352.784 81.1291 357.026 85.4933C361.741 90.3435 367.692 97.7487 372.092 104.24C381.473 118.08 388.538 135.664 392.174 154.22C392.902 157.933 393.107 159.02 394.041 164.109C394.942 169.018 395.602 170.861 397.212 172.959C398.495 174.632 398.954 175.823 399.497 178.889C399.921 181.29 399.98 182.629 399.999 190.271C400.02 198.991 399.718 204.637 398.827 212.152C398.157 217.801 397.624 219.348 395.001 223.258C394.077 224.636 393.107 226.257 392.845 226.862C392.584 227.466 391.904 230.279 391.334 233.111C388.937 245.032 387.287 252.142 384.76 261.437C383.01 267.874 382.751 268.705 378.962 280.048C376.051 288.762 375.26 290.941 373.565 294.913C372.599 297.178 372.055 298.266 370.113 301.819C369.207 303.478 366.511 307.326 365.411 308.532C363.727 310.377 361.26 312.35 355.658 316.331C349.231 320.898 346.229 323.412 341.125 328.5C333.839 335.762 328.026 343.219 317.762 358.471C313.597 364.659 309.352 370.757 307.087 373.804C306.417 374.705 304.657 377.076 303.176 379.071C292.954 392.844 279.378 407.284 271.007 413.288C266.208 416.73 260.784 419.788 257.595 420.85C252.985 422.385 247.215 422.81 243.057 421.92ZM387.633 201.039C388.192 195.682 388.204 186.285 387.654 183.136L387.267 180.918L385.468 179.273C382.748 176.787 376.746 172.828 361.861 163.705C356.229 160.253 347.232 155.093 339.622 150.949C337.433 149.757 334.01 147.888 332.014 146.797C325.984 143.499 308.484 134.734 302.517 132.023C295.541 128.853 292.913 127.677 292.217 127.413C291.767 127.241 290.676 126.744 289.794 126.307C288.911 125.87 285.867 124.565 283.028 123.406C279.25 121.864 277.818 121.377 277.688 121.587C277.591 121.745 277.44 122.357 277.355 122.948C277.109 124.641 275.676 130.412 275.053 132.214C273.451 136.854 270.161 143.371 268.535 145.124C268.181 145.506 268.14 145.669 268.365 145.808C268.528 145.909 272.302 147.453 276.752 149.24C281.202 151.027 285.739 152.864 286.833 153.322C290.138 154.707 293.683 156.228 294.675 156.686C295.19 156.924 297.613 157.981 300.06 159.034C311.148 163.81 332.292 174.213 345.826 181.55C356.728 187.461 361.062 189.971 374.152 197.952C375.53 198.793 381.534 202.846 385.384 205.535L386.902 206.595L387.059 205.807C387.146 205.373 387.404 203.228 387.633 201.039ZM170.554 152.756C167.869 150.657 166.152 149.077 164.011 146.734C159.614 141.925 157.283 138.509 153.624 131.512C150.601 125.733 148.907 123.63 146.657 122.863C145.198 122.366 144.834 122.398 143.214 123.165C141.692 123.885 140.011 125.531 138.027 128.242C130.363 138.717 124.79 144.935 119.272 149.171C118.207 149.989 117.366 150.688 117.402 150.725C117.439 150.761 119.311 150.679 121.563 150.542C127.285 150.192 142.395 150.2 147.194 150.556C154.33 151.083 159.69 151.752 165.337 152.821C172.379 154.153 172.34 154.153 170.554 152.756ZM223.306 141.248C234.339 139.306 242.228 132.727 246.792 121.661C249.725 114.547 250.28 108.061 248.428 102.519C246.334 96.2496 242.113 92.0503 233.81 87.9755C223.476 82.9036 203.665 78.735 189.849 78.7254C183.118 78.7205 178.168 79.62 174.239 81.5613C172.166 82.5857 171.498 83.0656 169.908 84.6732C167.807 86.7982 166.807 88.3456 165.647 91.2683C163.521 96.6235 163.242 101.569 164.742 107.342C166.384 113.659 168.962 118.541 173.57 124.055C176.392 127.432 178.396 129.174 182.884 132.148C188.214 135.68 195.706 138.514 205.133 140.563C210.612 141.754 218.699 142.058 223.306 141.248ZM100.843 131.646C109.602 127.57 119.003 118.451 126.656 106.605C127.205 105.755 128.488 103.373 129.507 101.313C133.252 93.7427 134.529 88.2422 133.413 84.4958C132.18 80.3558 127.161 79.3434 119.457 81.6803C115.83 82.7808 111.789 85.2002 109.129 87.8643C106.45 90.5479 103.351 95.6592 100.851 101.517C99.872 103.812 96.9122 111.59 96.4745 113.018C94.548 119.306 93.7026 123.562 93.7026 126.973C93.7026 130.547 94.2568 131.759 96.217 132.47C97.4099 132.903 98.5943 132.692 100.843 131.646ZM159.952 322.853C154.755 322.463 150.152 321.396 148.62 320.227C146.713 318.773 146.239 315.356 147.667 313.356C149.106 311.34 150.766 310.909 154.35 311.62C158.757 312.495 160.738 312.648 166.022 312.521C170.265 312.42 171.514 312.305 173.837 311.8C181.231 310.192 188.295 306.669 193.258 302.113C194.694 300.795 195.639 300.414 197.472 300.414C198.705 300.414 199.135 300.528 200.021 301.09C202.042 302.371 202.684 305.111 201.535 307.554C200.609 309.525 196.427 313.123 192.029 315.734C182.314 321.501 172.106 323.766 159.952 322.853ZM185.147 245.265C183.067 244.602 181.294 243.186 179.457 240.719C176.836 237.198 175.445 232.108 175.715 227.024C176.016 221.363 177.994 216.72 181.481 213.491C183.482 211.639 185.071 210.925 187.474 210.799C190.138 210.659 192.055 211.258 194.241 212.913C198.649 216.25 200.924 222.134 200.625 229.418C200.483 232.881 199.848 235.394 198.308 238.588C197.081 241.135 194.746 243.549 192.386 244.71C190.941 245.422 190.54 245.511 188.531 245.566C186.997 245.609 185.927 245.513 185.147 245.265Z" fill="#3567FA"/>
</svg>
